<svg xmlns="http://www.w3.org/2000/svg" xmlns:xlink="http://www.w3.org/1999/xlink" xmlns:fi="http://pattern.flaticon.com/" x="0" y="0" width="700" height="350" viewBox="0 0 700 350"><rect x="0px" y="0px" width="100%" height="100%" opacity="1" fill="#6ba3c4"/><defs><g transform="matrix(0.24454107514300977 -0.5244375307264678 0.5244375307264678 0.24454107514300977 -184.55486540867463 102.17514934002993)" id="L1_0"><path d="M303.227,8.435c3.797,1.036,7.558,2.158,11.277,3.374C310.784,10.594,307.025,9.469,303.227,8.435z" fill="#48bbee"/><path d="M206.305,187.699c8.57,0,16.961,2.504,24.234,7.316l20.541,13.599   c4.106,2.718,9.235,3.395,13.905,1.833l36.952-12.354l6.18-5.582c3.703-3.344,5.813-8.125,5.797-13.117   c-0.023-4.273-1.602-8.379-4.391-11.551l-39.044,11.585c-1.349,0.4-2.809,0.064-3.847-0.886l-26.227-24.004   c-1.742-1.598-3.68-0.977-4.227-0.746c-0.547,0.227-2.359,1.152-2.469,3.504l2.258,17.809c0.203,1.648-0.633,3.254-2.109,4.027   c-1.469,0.773-3.273,0.559-4.516-0.547l-21.773-19.305c-7.484-3.953-16.664-2.773-22.937,3.035l-6.962,17.486   c-1.093,2.745-2.924,5.134-5.291,6.902l-11.052,8.253l37.273-6.578C201.164,187.926,203.742,187.699,206.305,187.699z" fill="#48bbee"/><path d="M319.172,13.384c19.196,6.712,37.28,15.794,53.904,26.892c-0.019,0.001-0.039,0.002-0.058,0.003   c16.745,11.175,32.006,24.396,45.422,39.314l0.018-0.034c7.273,8.084,13.975,16.683,20.102,25.705   c0.203,0.298,0.405,0.596,0.606,0.896c2.433,3.617,4.77,7.302,7.008,11.055c0.335,0.562,0.667,1.125,0.998,1.689   c1.702,2.907,3.366,5.839,4.949,8.822l-0.012,0.039c13.481,25.433,22.533,53.577,26.106,83.412c-0.566,0.07-1.146,0.081-1.708-0.09   l-77.07-24.492l3.594,15.977c0.758,3.348,2.82,6.117,5.805,7.809c2.984,1.688,6.422,2.02,9.672,0.945l8.898-2.945   c1.227-0.41,2.555-0.207,3.602,0.555c1.039,0.75,1.656,1.957,1.656,3.242v21.734v0.015c0,8.867-4.203,17.208-11.328,22.485   l-22.887,18.405c-3.526,2.835-8.699,2.185-11.413-1.435l-37.037-49.383c-3.905-5.207-9.306-9.1-15.481-11.158L320,208   l60.539,78.621c5.438,4.527,12.445,6.926,19.836,6.414l11.359-0.777c1.227-0.055,2.43,0.402,3.258,1.324   c0.82,0.922,1.172,2.168,0.953,3.383l-4.672,25.75c-0.156,0.84-0.57,1.609-1.195,2.195l-46.875,44.164l-35.023,88.531   c-0.453,1.152-1.422,2.031-2.617,2.371c-4.414,1.27-8.906,1.895-13.367,1.895c-8.133,0-16.18-2.082-23.476-6.176   c-11.227-6.293-19.289-16.566-22.703-28.934c-2.703-9.797-4.016-16.324-4.016-19.957v-33.391l-5.406-2.078   c-12.453-4.789-23.461-12.805-31.844-23.18l-12.375-15.328l-53.172,9.492c-2.295,0.415-4.596,0.576-6.877,0.541   c15.355,56.699,50.972,105.065,98.597,136.862C247.3,479.886,243.663,480,240,480c132.548,0,240-107.452,240-240   C480,135.196,412.816,46.098,319.172,13.384z" fill="#48bbee"/><path d="M311.64,150.129l12.453-9.207c0.514-0.38,0.838-0.896,1.233-1.364l0.261-0.087   c2.206-2.765,2.385-6.76,0.177-9.74c-2.609-3.547-7.633-4.305-11.188-1.676l-10.328,7.641h-19.586c-4.422,0-8,3.582-8,8   s3.578,8,8,8h4.25h17.969C308.594,151.695,310.265,151.145,311.64,150.129z" fill="#48bbee"/><path d="M355.179,142.488c1.633,0,3.281-0.5,4.703-1.535c0.213-0.155,0.414-0.32,0.607-0.491   c1.339-1.2,2.161-2.787,2.486-4.462l0.045-0.012c0.401-2.099-0.027-4.352-1.389-6.214l-20.477-28.086   c-2.602-3.563-7.602-4.355-11.172-1.75c-3.57,2.602-4.359,7.609-1.75,11.18l20.477,28.086   C350.273,141.348,352.711,142.488,355.179,142.488z" fill="#48bbee"/><path d="M152.326,342.861c-3.923-0.06-7.781-0.756-11.428-2.048c-4.294-1.517-8.279-3.852-11.741-6.888   c-0.206-0.18-0.412-0.358-0.614-0.543c-0.328-0.301-0.648-0.609-0.965-0.923c-0.285-0.281-0.564-0.567-0.84-0.858   c-0.257-0.272-0.513-0.544-0.763-0.825c-0.337-0.379-0.662-0.77-0.984-1.165c-0.185-0.227-0.375-0.448-0.556-0.681   c-0.5-0.644-0.984-1.303-1.443-1.987l0,0c0,0,0-0.001,0-0.001l-5.819-8.667c-8.669-12.907-11.844-28.427-9.361-43.306   c0.033-0.2,0.061-0.401,0.096-0.6c0.043-0.241,0.094-0.482,0.14-0.723c0.079-0.416,0.155-0.831,0.243-1.246   c0.012-0.059,0.028-0.117,0.04-0.176c0.827-3.844,2.034-7.63,3.631-11.302c0.535-1.23,1.114-2.446,1.736-3.648   c0.007-0.014,0.014-0.029,0.021-0.043v0c0,0,0,0,0,0l12.258-23.644l-0.18-8.246c-0.281-12.746,7.844-23.766,19.742-27.387   l-10.867-3.023c-8.281-2.305-14.148-9.617-14.609-18.199l-0.578-10.691c-0.57-10.629,7.273-19.836,17.859-20.957L148,143.953   v-18.906c0-1.254,0.586-2.438,1.594-3.191l31.805-24.004c2.172-1.637,3.953-3.66,5.297-6.02l5.476-9.551l-35.555,6.977   c-1.172,0.223-2.391-0.078-3.313-0.836c-0.93-0.762-1.461-1.895-1.461-3.09V74.367c0-10.938,4.883-21.148,13.406-28.02   l50.094-40.402c1.281-1.035,3.07-1.176,4.508-0.352l35.07,20.199c0.938,0.539,2.023,0.668,3.078,0.387   c1.039-0.293,1.906-0.977,2.422-1.926L273.81,2.446h0l0.016-0.027c36.315,5.125,70.007,18.384,99.191,37.861   c0.02-0.001,0.039-0.002,0.058-0.003c-16.623-11.098-34.708-20.18-53.904-26.892c-0.071-0.025-0.141-0.05-0.211-0.074   c-1.293-0.451-2.592-0.89-3.895-1.319c-0.187-0.062-0.375-0.121-0.562-0.182c-3.719-1.215-7.48-2.338-11.277-3.374   c-0.516-0.141-1.031-0.281-1.548-0.419c-1.049-0.278-2.1-0.55-3.154-0.815c-0.64-0.16-1.282-0.314-1.923-0.469   c-1.54-0.373-3.086-0.73-4.637-1.073c-0.931-0.206-1.861-0.414-2.797-0.609c-0.859-0.179-1.723-0.346-2.585-0.516   c-0.899-0.177-1.799-0.351-2.702-0.518c-0.823-0.152-1.646-0.302-2.472-0.446c-1.099-0.191-2.202-0.371-3.306-0.548   c-0.63-0.101-1.257-0.208-1.888-0.304c-1.657-0.251-3.321-0.481-4.989-0.698c-0.654-0.085-1.31-0.162-1.966-0.242   c-1.188-0.145-2.379-0.281-3.573-0.408c-0.647-0.069-1.295-0.138-1.944-0.202c-1.53-0.151-3.063-0.287-4.601-0.409   c-0.267-0.021-0.531-0.048-0.798-0.068c-1.793-0.136-3.593-0.246-5.397-0.342c-0.552-0.029-1.105-0.052-1.658-0.078   c-1.354-0.063-2.712-0.115-4.072-0.155c-0.553-0.017-1.106-0.034-1.66-0.047C243.709,0.028,241.858,0,240,0   C107.452,0,0,107.452,0,240c0,132.548,107.452,240,240,240c3.664,0,7.3-0.114,10.924-0.276   C203.298,447.927,167.681,399.56,152.326,342.861z M113.18,87.945c2.32-3.77,7.242-4.953,11.008-2.629l12.789,7.852   c2.906,1.785,4.359,5.219,3.625,8.551l-5.656,25.465c-0.828,3.73-4.141,6.266-7.805,6.266c-0.578,0-1.156-0.059-1.742-0.191   c-4.313-0.957-7.031-5.23-6.078-9.543l4.422-19.898l-7.93-4.867C112.047,96.641,110.867,91.711,113.18,87.945z" fill="#0e94d7"/><path d="M251.08,208.615l6.506,4.307l7.4-2.474C260.315,212.009,255.186,211.333,251.08,208.615z" fill="#00e389"/><path d="M306.883,151.695h0.004c1.711,0,3.377-0.549,4.753-1.566l12.453-9.207l-12.453,9.207   C310.265,151.145,308.594,151.695,306.883,151.695z" fill="#00e389"/><path d="M444.112,183.373l5.092,19.037l-49.767-15.815l77.07,24.492c0.563,0.171,1.143,0.16,1.708,0.09   c-3.573-29.834-12.625-57.978-26.106-83.412l-7.524,24.997C441.588,162.723,441.424,173.323,444.112,183.373z" fill="#00e389"/><path d="M330.374,288.44l-0.877,1.315c-5.935,8.9-15.925,14.245-26.622,14.245h-93.748   c-10.699,0-20.691,5.347-26.625,14.25l-15.068,22.602l-8.221,1.467c-6.264,1.118-12.555,0.53-18.314-1.504   c3.648,1.292,7.505,1.987,11.428,2.048c2.281,0.035,4.582-0.126,6.877-0.541l53.172-9.492l12.375,15.328   c8.383,10.375,19.391,18.391,31.844,23.18l5.406,2.078v33.391c0,3.633,1.313,10.16,4.016,19.957   c3.414,12.367,11.477,22.641,22.703,28.934c7.297,4.094,15.344,6.176,23.476,6.176c4.461,0,8.953-0.625,13.367-1.895   c1.195-0.34,2.164-1.219,2.617-2.371l35.023-88.531l46.875-44.164c0.625-0.586,1.039-1.355,1.195-2.195l4.672-25.75   c0.219-1.215-0.133-2.461-0.953-3.383c-0.828-0.922-2.031-1.379-3.258-1.324l-11.359,0.777c-7.391,0.512-14.398-1.887-19.836-6.414   l-34.502-5.129C339.911,280.581,333.81,283.287,330.374,288.44z" fill="#00e389"/><path d="M273.81,2.446c0.139,0.02,0.28,0.027,0.419,0.047c13.091,1.871,25.84,4.799,38.16,8.692   c0.893,0.283,1.755,0.629,2.644,0.922c5.05,1.662,10.039,3.46,14.935,5.442c1.634,0.662,3.227,1.401,4.843,2.098   c4.094,1.764,8.146,3.605,12.118,5.586c1.831,0.914,3.63,1.878,5.434,2.837c3.685,1.958,7.318,3.999,10.886,6.14   c1.819,1.092,3.625,2.202,5.413,3.34c1.381,0.88,2.703,1.842,4.065,2.75c-97.838,4.528-180.374,67.618-213.349,155.027l1.951-0.371   l11.052-8.253c2.367-1.768,4.199-4.156,5.291-6.902l6.962-17.486c6.273-5.809,15.453-6.988,22.937-3.035l21.773,19.305   c1.242,1.105,3.047,1.32,4.516,0.547c1.477-0.773,2.313-2.379,2.109-4.027l-2.258-17.809c0.109-2.352,1.922-3.277,2.469-3.504   c0.547-0.23,2.484-0.852,4.227,0.746l26.227,24.004c1.038,0.95,2.498,1.286,3.847,0.886l39.044-11.585L288,174.23l-2.03-3.61   c-3.503-6.231-2.287-14.051,2.944-18.924h-4.25c-4.422,0-8-3.582-8-8s3.578-8,8-8h19.586l10.328-7.641   c3.555-2.629,8.578-1.871,11.188,1.676c2.207,2.98,2.029,6.975-0.177,9.74L336,136h10.375l2.335,3.203l-20.477-28.086   c-2.609-3.57-1.82-8.578,1.75-11.18c3.57-2.605,8.57-1.813,11.172,1.75l20.477,28.086c1.361,1.863,1.79,4.115,1.389,6.214   l15.901-4.383c8.359-2.304,15.425-7.901,19.581-15.51l19.937-36.5c-13.416-14.917-28.677-28.138-45.422-39.314   c-29.184-19.477-62.876-32.735-99.191-37.861L273.81,2.446z" fill="#00e389"/><path d="M115.813,98.949l7.93,4.867l-4.422,19.898c-0.953,4.313,1.766,8.586,6.078,9.543   c0.586,0.133,1.164,0.191,1.742,0.191c3.664,0,6.977-2.535,7.805-6.266l5.656-25.465c0.734-3.332-0.719-6.766-3.625-8.551   l-12.789-7.852c-3.766-2.324-8.688-1.141-11.008,2.629C110.867,91.711,112.047,96.641,115.813,98.949z" fill="#00bbbb"/><path d="M159.377,195.328c32.975-87.409,115.511-150.499,213.349-155.027   c-1.362-0.907-2.684-1.87-4.065-2.75c-1.788-1.139-3.593-2.249-5.413-3.34c-3.567-2.141-7.201-4.182-10.886-6.14   c-1.804-0.959-3.603-1.923-5.434-2.837c-3.972-1.981-8.024-3.822-12.118-5.586c-1.616-0.697-3.208-1.436-4.843-2.098   c-4.896-1.982-9.885-3.78-14.935-5.442c-0.888-0.293-1.751-0.64-2.644-0.922c-12.32-3.894-25.068-6.822-38.16-8.692   c-0.139-0.02-0.28-0.027-0.419-0.047h0l-13.388,21.808c-0.516,0.949-1.383,1.633-2.422,1.926c-1.055,0.281-2.141,0.152-3.078-0.387   l-35.07-20.199c-1.438-0.824-3.227-0.684-4.508,0.352L165.25,46.348c-8.523,6.871-13.406,17.082-13.406,28.02v10.965   c0,1.195,0.531,2.328,1.461,3.09c0.922,0.758,2.141,1.059,3.313,0.836l35.555-6.977l-5.476,9.551   c-1.344,2.359-3.125,4.383-5.297,6.02l-31.805,24.004c-1.008,0.754-1.594,1.938-1.594,3.191v18.906l-10.656,1.133   c-10.586,1.121-18.43,10.328-17.859,20.957l0.578,10.691c0.461,8.582,6.328,15.895,14.609,18.199l10.867,3.023L159.377,195.328z" fill="#00bbbb"/><path d="M107.831,294.822c-1.106-6.555-1.118-13.266-0.02-19.851c-2.483,14.879,0.692,30.399,9.361,43.306   c-0.382-0.568-0.753-1.142-1.113-1.72C111.859,309.818,109.113,302.425,107.831,294.822z" fill="#00bbbb"/><path d="M113.719,257.233 113.718,257.234 125.977,233.59z" fill="#ffedb9"/><path d="M378.922,131.604l-15.901,4.383L362.976,136c-0.325,1.676-1.147,3.262-2.486,4.462   c-0.192,0.172-0.394,0.336-0.607,0.491c-1.422,1.035-3.07,1.535-4.703,1.535c-2.469,0-4.906-1.141-6.469-3.285L346.375,136H336   l-10.412,3.47l-0.261,0.087c-0.395,0.468-0.719,0.984-1.233,1.364l-12.453,9.207c-1.376,1.017-3.042,1.566-4.753,1.566h-0.004   h-17.969c-5.23,4.873-6.447,12.693-2.944,18.924l2.03,3.61l21.523-6.386c2.789,3.172,4.367,7.277,4.391,11.551   c0.016,4.992-2.094,9.773-5.797,13.117l-6.18,5.582l-36.952,12.354l-7.4,2.474l-6.506-4.307l-20.541-13.599   c-7.273-4.813-15.664-7.316-24.234-7.316c-2.563,0-5.141,0.227-7.703,0.68l-37.273,6.578l-1.951,0.371l-13.838,2.629l13.901-2.641   C149.499,221.657,144,250.178,144,280c0,21.739,2.954,42.774,8.373,62.797c-8.571-0.123-16.805-3.276-23.216-8.871   c3.462,3.036,7.448,5.371,11.741,6.888c5.759,2.034,12.05,2.623,18.314,1.504l8.221-1.467l15.068-22.602   c5.935-8.902,15.926-14.25,26.625-14.25h93.748c10.697,0,20.687-5.345,26.622-14.245l0.877-1.315   c3.436-5.152,9.537-7.859,15.663-6.948l34.502,5.129L320,208l14.517,4.839c6.175,2.058,11.575,5.951,15.481,11.158l37.037,49.383   c2.715,3.619,7.888,4.27,11.413,1.435l22.887-18.405c7.125-5.277,11.328-13.618,11.328-22.485v-0.015v-21.734   c0-1.285-0.617-2.492-1.656-3.242c-1.047-0.762-2.375-0.965-3.602-0.555l-8.898,2.945c-3.25,1.074-6.688,0.742-9.672-0.945   c-2.984-1.691-5.047-4.461-5.805-7.809l-3.594-15.977l49.767,15.815l-5.092-19.037c-2.688-10.05-2.524-20.649,0.474-30.611   l7.524-24.997l0.012-0.039c-1.582-2.983-3.247-5.915-4.949-8.822c-0.331-0.564-0.663-1.128-0.998-1.689   c-2.238-3.753-4.575-7.438-7.008-11.055c-0.201-0.299-0.403-0.597-0.606-0.896c-6.127-9.022-12.829-17.621-20.102-25.705   l-0.018,0.034l-19.937,36.5C394.347,123.703,387.281,129.301,378.922,131.604z" fill="#ffedb9"/><path d="M107.831,294.822c1.282,7.603,4.028,14.996,8.228,21.735   C111.859,309.818,109.113,302.425,107.831,294.822z" fill="#ffedb9"/><path d="M152.373,342.797C146.954,322.774,144,301.739,144,280c0-29.822,5.499-58.343,15.44-84.684   l-13.901,2.641c-11.898,3.621-20.023,14.641-19.742,27.387l0.18,8.246l-12.258,23.644v0c-0.007,0.014-0.014,0.029-0.021,0.043   c-0.622,1.202-1.201,2.418-1.736,3.648c-1.597,3.671-2.804,7.458-3.631,11.302c-0.013,0.059-0.028,0.117-0.04,0.176   c-0.088,0.414-0.164,0.83-0.243,1.246c-0.046,0.241-0.098,0.481-0.14,0.723c-0.035,0.2-0.063,0.4-0.096,0.6   c-1.098,6.585-1.085,13.296,0.02,19.851c1.282,7.603,4.028,14.996,8.228,21.735c0.36,0.578,0.731,1.152,1.113,1.72l5.82,8.667l0,0   c0.459,0.684,0.943,1.343,1.443,1.987c0.18,0.232,0.37,0.454,0.556,0.681c0.322,0.395,0.647,0.786,0.984,1.165   c0.25,0.28,0.505,0.553,0.763,0.825c0.276,0.291,0.555,0.577,0.84,0.858c0.318,0.313,0.637,0.623,0.965,0.923   c0.202,0.185,0.409,0.363,0.614,0.543C135.568,339.521,143.802,342.674,152.373,342.797z" fill="#ffd586"/></g><g transform="matrix(0.277389858012282 -0.09986034589949662 0.09986034589949662 0.277389858012282 -89.35883706099631 201.90095158992096)" id="L1_1"><path d="m512 412.574219v72.917969c0 12.234374-9.921875 22.15625-22.171875 22.15625h-467.65625c-12.25 0-22.171875-9.921876-22.171875-22.15625v-72.917969zm0 0" fill="#fd7504"/><path d="m512 412.574219v49.3125c0 12.238281-9.921875 22.160156-22.171875 22.160156h-467.65625c-12.25 0-22.171875-9.921875-22.171875-22.160156v-49.3125zm0 0" fill="#ffc183"/><path d="m489.835938 444.367188h-467.671876c-12.238281 0-22.164062-9.921876-22.164062-22.164063v-117.242187c0-12.242188 9.925781-22.167969 22.164062-22.167969h467.671876c12.242187 0 22.164062 9.925781 22.164062 22.167969v117.242187c0 12.242187-9.925781 22.164063-22.164062 22.164063zm0 0" fill="#ffe5c0"/><path d="m103.730469 359.433594c-.972657 0-1.960938-.1875-2.917969-.574219-3.949219-1.617187-5.84375-6.125-4.230469-10.074219l67.019531-164.109375c1.613282-3.953125 6.121094-5.84375 10.074219-4.230469 3.949219 1.613282 5.84375 6.121094 4.230469 10.070313l-67.019531 164.109375c-1.222657 2.996094-4.109375 4.808594-7.15625 4.808594zm0 0" fill="#383c7c"/><path d="m408.269531 359.433594c-3.046875 0-5.933593-1.8125-7.15625-4.808594l-67.019531-164.109375c-1.613281-3.949219.28125-8.460937 4.230469-10.074219 3.953125-1.613281 8.460937.28125 10.074219 4.230469l67.019531 164.109375c1.613281 3.953125-.28125 8.460938-4.230469 10.074219-.957031.390625-1.949219.578125-2.917969.578125zm0 0" fill="#383c7c"/><path d="m380.054688 138.539062c0 68.515626-55.542969 124.054688-124.054688 124.054688s-124.054688-55.539062-124.054688-124.054688c0-68.511718 55.542969-124.050781 124.054688-124.050781s124.054688 55.539063 124.054688 124.050781zm0 0" fill="#898ec9"/><g fill="#6163aa"><path d="m170.753906 136.84375c-4.265625 0-7.726562-3.460938-7.726562-7.726562v-15.796876c0-4.269531 3.460937-7.726562 7.726562-7.726562 4.269532 0 7.726563 3.457031 7.726563 7.726562v15.796876c0 4.265624-3.457031 7.726562-7.726563 7.726562zm0 0"/><path d="m193.160156 141.003906c-4.269531 0-7.726562-3.457031-7.726562-7.726562v-15.792969c0-4.269531 3.457031-7.726563 7.726562-7.726563 4.265625 0 7.726563 3.457032 7.726563 7.726563v15.792969c0 4.269531-3.460938 7.726562-7.726563 7.726562zm0 0"/><path d="m380.054688 138.546875c0 68.503906-55.539063 124.042969-124.054688 124.042969-4.644531 0-9.21875-.257813-13.730469-.761719 62.046875-6.832031 110.308594-59.421875 110.308594-123.28125 0-63.871094-48.261719-116.464844-110.308594-123.292969 4.511719-.503906 9.085938-.761718 13.730469-.761718 68.515625 0 124.054688 55.535156 124.054688 124.054687zm0 0"/><path d="m256 416.179688c-4.269531 0-7.726562-3.460938-7.726562-7.726563v-167.144531c0-4.269532 3.460937-7.726563 7.726562-7.726563s7.726562 3.460938 7.726562 7.726563v167.144531c0 4.265625-3.457031 7.726563-7.726562 7.726563zm0 0"/></g><path d="m385.71875 131.578125v40c0 4.492187-2.914062 8.457031-7.191406 9.824219-6.230469 1.992187-12.773438 3.832031-19.609375 5.507812-29.871094 7.34375-65.136719 11.582032-102.917969 11.582032s-73.050781-4.238282-102.917969-11.582032c-6.835937-1.675781-13.378906-3.515625-19.609375-5.507812-4.28125-1.367188-7.191406-5.332032-7.191406-9.824219v-40c0-6.855469 6.582031-11.832031 13.160156-9.898437 4.386719 1.292968 8.914063 2.511718 13.578125 3.65625 29.878907 7.351562 65.171875 11.597656 102.980469 11.597656s73.101562-4.246094 102.980469-11.597656c4.664062-1.144532 9.191406-2.363282 13.578125-3.65625 6.578125-1.933594 13.160156 3.042968 13.160156 9.898437zm0 0" fill="#fd8f07"/><path d="m385.71875 131.582031v40c0 4.492188-2.914062 8.460938-7.191406 9.820313-6.078125 1.9375-12.441406 3.738281-19.097656 5.386718 1.328124-1.945312 2.082031-4.285156 2.082031-6.746093v-46.730469c0-3.058594-1.125-5.789062-2.925781-7.882812.132812-.027344.257812-.058594.390624-.089844 4.664063-1.144532 9.199219-2.371094 13.578126-3.660156 6.582031-1.933594 13.164062 3.039062 13.164062 9.902343zm0 0" fill="#fd7504"/><path d="m269.507812 41.207031h-27.015624v-27.699219c0-7.460937 6.046874-13.507812 13.507812-13.507812s13.507812 6.046875 13.507812 13.507812zm0 0" fill="#fd8f07"/><path d="m283.472656 48.933594h-54.945312c-4.265625 0-7.726563-3.460938-7.726563-7.726563s3.460938-7.726562 7.726563-7.726562h54.945312c4.265625 0 7.726563 3.460937 7.726563 7.726562s-3.460938 7.726563-7.726563 7.726563zm0 0" fill="#6163aa"/><path d="m341.300781 159.691406c-.023437 0-.050781 0-.074219 0h-.105468c-4.269532-.042968-7.695313-3.535156-7.65625-7.800781.042968-4.242187 3.492187-7.652344 7.726562-7.652344h.074219.105469c4.269531.039063 7.695312 3.53125 7.652344 7.796875-.039063 4.246094-3.492188 7.65625-7.722657 7.65625zm0 0" fill="#ff2e04"/><path d="m341.300781 178.050781c-.023437 0-.050781 0-.074219 0l-.105468-.003906c-4.269532-.039063-7.695313-3.53125-7.65625-7.796875.042968-4.242188 3.492187-7.65625 7.726562-7.65625h.074219l.105469.003906c4.269531.039063 7.695312 3.53125 7.652344 7.796875-.039063 4.242188-3.492188 7.65625-7.722657 7.65625zm0 0" fill="#c5ee09"/><path d="m100.78125 418.339844h-62.835938v-26.707032c0-5.6875 4.613282-10.300781 10.300782-10.300781h32.753906c4.433594 0 8.367188 2.835938 9.773438 7.039063zm0 0" fill="#fd8f07"/><path d="m130.464844 426.066406h-99.417969c-4.265625 0-7.726563-3.460937-7.726563-7.726562 0-4.269532 3.460938-7.726563 7.726563-7.726563h99.414063c4.269531 0 7.726562 3.457031 7.726562 7.726563 0 4.265625-3.457031 7.726562-7.722656 7.726562zm0 0" fill="#ffc183"/><path d="m388.238281 361.886719h62.835938v-26.703125c0-5.691406-4.613281-10.300782-10.300781-10.300782h-32.753907c-4.433593 0-8.367187 2.832032-9.773437 7.035157zm0 0" fill="#fd8f07"/><path d="m457.972656 369.613281h-99.414062c-4.269532 0-7.726563-3.457031-7.726563-7.726562 0-4.265625 3.457031-7.726563 7.726563-7.726563h99.414062c4.265625 0 7.726563 3.460938 7.726563 7.726563 0 4.269531-3.460938 7.726562-7.726563 7.726562zm0 0" fill="#ffc183"/><path d="m458.023438 396.792969h-.105469c-4.269531 0-7.726563-3.460938-7.726563-7.726563 0-4.269531 3.460938-7.726562 7.726563-7.726562h.105469c4.269531 0 7.726562 3.457031 7.726562 7.726562 0 4.265625-3.457031 7.726563-7.726562 7.726563zm0 0" fill="#ffc183"/><path d="m440.507812 407.5625h-.105468c-4.269532 0-7.726563-3.460938-7.726563-7.726562 0-4.265626 3.460938-7.726563 7.726563-7.726563h.105468c4.269532 0 7.726563 3.460937 7.726563 7.726563 0 4.265624-3.457031 7.726562-7.726563 7.726562zm0 0" fill="#ffc183"/><path d="m283.523438 353.957031h-.105469c-4.269531 0-7.726563-3.460937-7.726563-7.726562 0-4.269531 3.460938-7.726563 7.726563-7.726563h.105469c4.269531 0 7.726562 3.460938 7.726562 7.726563s-3.457031 7.726562-7.726562 7.726562zm0 0" fill="#fd8f07"/><path d="m62.433594 353.957031h-.109375c-4.265625 0-7.722657-3.460937-7.722657-7.726562 0-4.269531 3.457032-7.726563 7.722657-7.726563h.109375c4.265625 0 7.726562 3.460938 7.726562 7.726563s-3.460937 7.726562-7.726562 7.726562zm0 0" fill="#fd8f07"/><path d="m145.769531 330.546875h-.105469c-4.269531 0-7.726562-3.460937-7.726562-7.726563 0-4.269531 3.460938-7.726562 7.726562-7.726562h.105469c4.269531 0 7.726563 3.460938 7.726563 7.726562 0 4.269532-3.457032 7.726563-7.726563 7.726563zm0 0" fill="#ffc183"/></g><g transform="matrix(0.1171875 0 0 0.1171875 314.00000001464844 77)" id="L1_2"><path d="m328.9375 31.511719-3.058594-22.46875c-.703125-5.179688-5.125-9.042969-10.355468-9.042969h-209.957032c-5.226562 0-9.652344 3.863281-10.355468 9.039062l-3.054688 22.46875h236.78125zm0 0" fill="#d82fea"/><path d="m338.019531 512h-254.949219c-50.304687 0-89.070312-44.378906-82.300781-94.230469l1.945313-14.257812 31.925781-235.128907 3.6875-27.207031h344.433594l3.6875 27.207031 31.925781 235.128907 1.945312 14.257812c6.769532 49.851563-31.996093 94.230469-82.300781 94.230469zm0 0" fill="#898ec9"/><path d="m386.449219 168.382812c-1.132813.164063-2.296875.246094-3.484375.246094h-344.839844c-1.1875 0-2.351562-.082031-3.484375-.246094l3.6875-27.207031h344.433594zm0 0" fill="#6163aa"/><path d="m338.023438 511.996094h-21.8125c50.304687 0 89.066406-44.375 82.296874-94.222656l-1.9375-14.261719-35.617187-262.339844h21.808594l35.617187 262.339844 1.9375 14.261719c6.773438 49.847656-31.992187 94.222656-82.292968 94.222656zm0 0" fill="#6163aa"/><path d="m338.023438 511.996094h-254.957032c-50.300781 0-89.0625-44.375-82.292968-94.222656l1.9375-14.261719h415.667968l1.9375 14.261719c6.773438 49.847656-31.992187 94.222656-82.292968 94.222656zm0 0" fill="#d82fea"/><path d="m338.023438 511.996094h-21.8125c50.304687 0 89.066406-44.375 82.296874-94.222656l-1.9375-14.261719h21.808594l1.9375 14.261719c6.773438 49.847656-31.992187 94.222656-82.292968 94.222656zm0 0" fill="#b200bf"/><path d="m351.011719 156.269531h-280.933594c-7.621094 0-13.503906-6.730469-12.472656-14.28125l7.4375-54.660156 6.59375-48.511719c.855469-6.230468 6.179687-10.886718 12.476562-10.886718h252.867188c6.292969 0 11.621093 4.65625 12.476562 10.886718l6.59375 48.511719 7.4375 54.660156c1.027344 7.550781-4.855469 14.28125-12.476562 14.28125zm0 0" fill="#898ec9"/><path d="m351.011719 156.269531h-280.933594c-7.621094 0-13.503906-6.730469-12.472656-14.28125l7.4375-54.660156h291.007812l7.4375 54.660156c1.027344 7.550781-4.855469 14.28125-12.476562 14.28125zm0 0" fill="#6163aa"/><path d="m351.011719 156.261719h-21.8125c7.628906 0 13.503906-6.722657 12.472656-14.273438l-14.03125-103.171875c-.859375-6.230468-6.179687-10.886718-12.472656-10.886718h21.808593c6.292969 0 11.628907 4.65625 12.472657 10.886718l14.03125 103.171875c1.035156 7.554688-4.84375 14.273438-12.46875 14.273438zm0 0" fill="#6163aa"/><path d="m382.964844 156.269531h-344.839844c-6.949219 0-12.582031-5.632812-12.582031-12.582031v-31.414062c0-6.953126 5.632812-12.585938 12.582031-12.585938h344.839844c6.949218 0 12.582031 5.636719 12.582031 12.585938v31.414062c.003906 6.949219-5.632813 12.582031-12.582031 12.582031zm0 0" fill="#2de0c7"/><path d="m130.828125 512v-232.980469c0-44.027343 35.691406-79.714843 79.71875-79.714843 44.023437 0 79.714844 35.6875 79.714844 79.714843v232.980469zm0 0" fill="#383c7c"/><path d="m258.242188 280.316406c0 26.351563-21.359376 47.699219-47.695313 47.699219-7.53125 0-14.652344-1.75-20.980469-4.851563-7.769531-3.804687-14.339844-9.65625-19.019531-16.875-4.867187-7.472656-7.699219-16.398437-7.699219-25.972656 0-26.335937 21.359375-47.683594 47.699219-47.683594 9.574219 0 18.5 2.820313 25.96875 7.683594 7.207031 4.679688 13.070313 11.265625 16.878906 19.019532 3.101563 6.332031 4.847657 13.449218 4.847657 20.980468zm0 0" fill="#2de0c7"/><path d="m253.394531 259.335938-63.828125 63.828124c-7.769531-3.804687-14.339844-9.65625-19.019531-16.875l65.96875-65.972656c7.207031 4.679688 13.070313 11.265625 16.878906 19.019532zm0 0" fill="#9bf2e5"/><path d="m165.921875 391.355469c-4.269531 0-7.726563-3.457031-7.726563-7.726563v-10.695312c0-4.269532 3.457032-7.726563 7.726563-7.726563 4.265625 0 7.726563 3.457031 7.726563 7.726563v10.695312c0 4.269532-3.460938 7.726563-7.726563 7.726563zm0 0" fill="#898ec9"/><path d="m358.835938 343.125c0 9.132812-7.40625 16.535156-16.539063 16.535156s-16.535156-7.402344-16.535156-16.535156 7.402343-16.539062 16.535156-16.539062 16.539063 7.40625 16.539063 16.539062zm0 0" fill="#d82fea"/><path d="m95.328125 343.125c0 9.132812-7.402344 16.535156-16.535156 16.535156-9.132813 0-16.535157-7.402344-16.535157-16.535156s7.402344-16.539062 16.535157-16.539062c9.132812 0 16.535156 7.40625 16.535156 16.539062zm0 0" fill="#d82fea"/><g fill="#b200bf"><path d="m182.28125 50.339844c-4.269531 0-7.726562-3.460938-7.726562-7.726563v-12.167969c0-4.265624 3.460937-7.722656 7.726562-7.722656s7.726562 3.457032 7.726562 7.722656v12.167969c0 4.265625-3.457031 7.726563-7.726562 7.726563zm0 0"/><path d="m210.546875 50.339844c-4.269531 0-7.726563-3.460938-7.726563-7.726563v-12.167969c0-4.265624 3.457032-7.722656 7.726563-7.722656 4.265625 0 7.722656 3.457032 7.722656 7.722656v12.167969c0 4.265625-3.457031 7.726563-7.722656 7.726563zm0 0"/><path d="m238.808594 50.339844c-4.265625 0-7.726563-3.460938-7.726563-7.726563v-12.167969c0-4.265624 3.460938-7.722656 7.726563-7.722656s7.726562 3.457032 7.726562 7.722656v12.167969c0 4.265625-3.460937 7.726563-7.726562 7.726563zm0 0"/></g><path d="m76.339844 440.28125h-.128906c-4.269532 0-7.726563-3.460938-7.726563-7.726562 0-4.265626 3.457031-7.726563 7.726563-7.726563h.128906c4.269531 0 7.726562 3.460937 7.726562 7.726563 0 4.265624-3.457031 7.726562-7.726562 7.726562zm0 0" fill="#383c7c"/><path d="m102.730469 440.28125h-.128907c-4.269531 0-7.726562-3.460938-7.726562-7.726562 0-4.265626 3.457031-7.726563 7.726562-7.726563h.128907c4.269531 0 7.726562 3.460937 7.726562 7.726563 0 4.265624-3.457031 7.726562-7.726562 7.726562zm0 0" fill="#383c7c"/></g><g transform="matrix(0.12117659381448974 0.12117659381448972 -0.12117659381448972 0.12117659381448974 189.38128517209594 55.08244219042536)" id="L1_3"><path d="m181.101562 289.214844 17.394532 17.433594 17.503906 17.496093 5.917969 5.933594c5.757812 5.753906 14.914062 6.269531 21.28125 1.199219l6.640625-5.277344 75.039062-59.28125 47.757813-37.757812c26.632812-21.046876 48.777343-47.214844 65.121093-76.960938l-59.734374-59.703125zm0 0" fill="#006df0"/><path d="m166.300781 274.445312 14.800781 14.769532 196.90625-196.902344-46.867187-46.824219-12.917969-12.914062c-29.707031 16.371093-55.847656 38.511719-76.878906 65.121093l-37.761719 47.757813-59.28125 75.042969-5.277343 6.640625c-5.070313 6.363281-4.554688 15.523437 1.199218 21.277343l5.917969 5.921876zm0 0" fill="#005ece"/><path d="m146.140625 126.253906c-25.449219.023438-49.851563 10.152344-67.839844 28.160156l65.976563 66.058594 59.296875-75.019531c-16.550781-12.46875-36.710938-19.207031-57.433594-19.199219zm0 0" fill="#bddbff"/><path d="m315.902344 392.015625c33.816406-33.675781 37.640625-87.125 8.960937-125.273437l-75.015625 59.296874zm0 0" fill="#bddbff"/><path d="m146.175781 254.320312 34.910157 34.910157zm0 0" fill="#ffcd00"/><path d="m344.167969 126.152344c-12.5-12.5-32.761719-12.5-45.257813 0-12.496094 12.496094-12.496094 32.757812 0 45.253906zm0 0" fill="#ebbf00"/><path d="m298.910156 171.40625c12.496094 12.496094 32.757813 12.496094 45.257813 0 12.496093-12.496094 12.496093-32.757812 0-45.253906zm0 0" fill="#ffcd00"/><path d="m468.621094 1.695312-6.933594-.527343c-49.863281-3.785157-99.742188 7.136719-143.464844 31.40625l12.917969 12.914062 46.867187 46.824219zm0 0" fill="#cd2a00"/><g fill="#ed1c24"><path d="m468.621094 1.695312-90.613282 90.617188 59.734376 59.703125c24.246093-43.699219 35.164062-93.542969 31.398437-143.375zm0 0"/><path d="m378.007812 92.3125-46.867187-46.824219zm0 0"/><path d="m378.007812 92.3125 59.734376 59.703125zm0 0"/></g><path d="m181.085938 289.230469-45.261719 45.265625 12.285156 12.285156c12.496094 12.492188 32.753906 12.492188 45.25 0l22.613281-22.613281-17.488281-17.511719zm0 0" fill="#00479b"/><path d="m181.085938 289.230469-14.785157-14.785157-20.152343-20.101562-22.605469 22.605469c-12.492188 12.496093-12.492188 32.753906 0 45.25l12.28125 12.296875 45.253906-45.257813zm0 0" fill="#003f8a"/><path d="m146.175781 254.320312-.027343.023438 20.152343 20.101562zm0 0" fill="#00479b"/><path d="m198.496094 306.648438 17.484375 17.511718.019531-.015625zm0 0" fill="#00479b"/><path d="m44.277344 358.152344c-18.742188 18.742187-36.277344 104.167968-36.277344 104.167968l104.167969-104.167968c-18.746094-18.75-49.144531-18.75-67.890625 0zm0 0" fill="#ff9811"/><path d="m112.167969 426.039062c18.746093-18.746093 18.746093-49.140624 0-67.886718l-104.167969 104.167968s85.421875-17.539062 104.167969-36.28125zm0 0" fill="#ffa733"/><path d="m180.285156 434.039062c-3.234375 0-6.148437-1.949218-7.386718-4.9375-1.238282-2.992187-.554688-6.429687 1.730468-8.71875l33.9375-33.945312c3.140625-3.03125 8.128906-2.988281 11.214844.097656 3.085938 3.085938 3.128906 8.078125.097656 11.214844l-33.9375 33.945312c-1.5 1.5-3.535156 2.34375-5.65625 2.34375zm0 0" fill="#ff5023"/><path d="m244.285156 442.039062c-3.234375 0-6.148437-1.949218-7.386718-4.9375-1.238282-2.992187-.554688-6.429687 1.730468-8.71875l33.9375-33.945312c3.140625-3.03125 8.128906-2.988281 11.214844.097656 3.085938 3.085938 3.128906 8.078125.097656 11.214844l-33.9375 33.945312c-1.5 1.5-3.535156 2.34375-5.65625 2.34375zm0 0" fill="#ff7956"/><path d="m152 462.320312c-3.238281-.003906-6.152344-1.949218-7.390625-4.941406-1.238281-2.988281-.554687-6.429687 1.734375-8.714844l5.65625-5.65625c2.007812-2.082031 4.980469-2.914062 7.777344-2.183593 2.796875.734375 4.980468 2.917969 5.714844 5.714843.730468 2.796876-.101563 5.769532-2.183594 7.78125l-5.65625 5.65625c-1.496094 1.5-3.53125 2.34375-5.652344 2.34375zm0 0" fill="#ff5023"/><path d="m36.285156 298.039062c-3.234375 0-6.148437-1.949218-7.386718-4.9375-1.238282-2.992187-.554688-6.429687 1.730468-8.71875l33.9375-33.945312c3.140625-3.03125 8.128906-2.988281 11.214844.097656 3.085938 3.085938 3.128906 8.078125.097656 11.214844l-33.9375 33.945312c-1.5 1.5-3.535156 2.34375-5.65625 2.34375zm0 0" fill="#ff5023"/><path d="m36.285156 234.039062c-3.234375 0-6.148437-1.949218-7.386718-4.9375-1.238282-2.992187-.554688-6.429687 1.730468-8.71875l33.9375-33.945312c3.140625-3.03125 8.128906-2.988281 11.214844.097656 3.085938 3.085938 3.128906 8.078125.097656 11.214844l-33.9375 33.945312c-1.5 1.5-3.535156 2.34375-5.65625 2.34375zm0 0" fill="#ff7956"/><path d="m8 326.320312c-3.238281-.003906-6.152344-1.949218-7.390625-4.941406-1.238281-2.988281-.5546875-6.429687 1.734375-8.714844l5.65625-5.65625c2.007812-2.082031 4.980469-2.914062 7.777344-2.183593 2.796875.734375 4.980468 2.917969 5.714844 5.714843.730468 2.796876-.101563 5.769532-2.183594 7.78125l-5.65625 5.65625c-1.496094 1.5-3.53125 2.34375-5.652344 2.34375zm0 0" fill="#ff5023"/></g></defs><g fi:class="KUsePattern"><pattern id="pattern_L1_0" width="350" height="350" patternUnits="userSpaceOnUse"><use xlink:href="#L1_0" x="-350" y="-350"/><use xlink:href="#L1_0" x="0" y="-350"/><use xlink:href="#L1_0" x="350" y="-350"/><use xlink:href="#L1_0" x="-350" y="0"/><use xlink:href="#L1_0" x="0" y="0"/><use xlink:href="#L1_0" x="350" y="0"/><use xlink:href="#L1_0" x="-350" y="350"/><use xlink:href="#L1_0" x="0" y="350"/><use xlink:href="#L1_0" x="350" y="350"/></pattern><rect x="0" y="0" width="100%" height="100%" fill="url(#pattern_L1_0)"/></g><g fi:class="KUsePattern"><pattern id="pattern_L1_1" width="350" height="350" patternUnits="userSpaceOnUse"><use xlink:href="#L1_1" x="-350" y="-350"/><use xlink:href="#L1_1" x="0" y="-350"/><use xlink:href="#L1_1" x="350" y="-350"/><use xlink:href="#L1_1" x="-350" y="0"/><use xlink:href="#L1_1" x="0" y="0"/><use xlink:href="#L1_1" x="350" y="0"/><use xlink:href="#L1_1" x="-350" y="350"/><use xlink:href="#L1_1" x="0" y="350"/><use xlink:href="#L1_1" x="350" y="350"/></pattern><rect x="0" y="0" width="100%" height="100%" fill="url(#pattern_L1_1)"/></g><g fi:class="KUsePattern"><pattern id="pattern_L1_2" width="350" height="350" patternUnits="userSpaceOnUse"><use xlink:href="#L1_2" x="-350" y="-350"/><use xlink:href="#L1_2" x="0" y="-350"/><use xlink:href="#L1_2" x="350" y="-350"/><use xlink:href="#L1_2" x="-350" y="0"/><use xlink:href="#L1_2" x="0" y="0"/><use xlink:href="#L1_2" x="350" y="0"/><use xlink:href="#L1_2" x="-350" y="350"/><use xlink:href="#L1_2" x="0" y="350"/><use xlink:href="#L1_2" x="350" y="350"/></pattern><rect x="0" y="0" width="100%" height="100%" fill="url(#pattern_L1_2)"/></g><g fi:class="KUsePattern"><pattern id="pattern_L1_3" width="350" height="350" patternUnits="userSpaceOnUse"><use xlink:href="#L1_3" x="-350" y="-350"/><use xlink:href="#L1_3" x="0" y="-350"/><use xlink:href="#L1_3" x="350" y="-350"/><use xlink:href="#L1_3" x="-350" y="0"/><use xlink:href="#L1_3" x="0" y="0"/><use xlink:href="#L1_3" x="350" y="0"/><use xlink:href="#L1_3" x="-350" y="350"/><use xlink:href="#L1_3" x="0" y="350"/><use xlink:href="#L1_3" x="350" y="350"/></pattern><rect x="0" y="0" width="100%" height="100%" fill="url(#pattern_L1_3)"/></g></svg>